<?xml version="1.0" standalone="no"?>
<!DOCTYPE svg PUBLIC "-//W3C//DTD SVG 20010904//EN"
 "http://www.w3.org/TR/2001/REC-SVG-20010904/DTD/svg10.dtd">
<svg version="1.0" xmlns="http://www.w3.org/2000/svg"
 width="260.000000pt" height="260.000000pt" viewBox="0 0 260.000000 260.000000"
 preserveAspectRatio="xMidYMid meet">
<metadata>
Created by potrace 1.14, written by Peter Selinger 2001-2017
</metadata>
<g transform="translate(0.000000,260.000000) scale(0.100000,-0.100000)"
fill="#000000" stroke="none">
<path d="M1076 2564 c-258 -47 -493 -170 -681 -359 -150 -150 -244 -300 -310
-498 -46 -139 -65 -256 -65 -407 0 -350 128 -660 374 -905 151 -151 302 -244
499 -310 139 -46 256 -65 407 -65 350 0 660 128 905 374 151 151 244 302 310
499 46 139 65 256 65 407 0 350 -128 660 -374 905 -193 192 -426 314 -690 360
-110 19 -332 18 -440 -1z m445 -108 c420 -81 765 -386 898 -793 41 -126 55
-220 55 -363 0 -202 -39 -365 -131 -543 -163 -315 -453 -533 -815 -613 -93
-21 -326 -24 -428 -5 -164 30 -363 114 -489 206 -247 182 -419 457 -472 755
-17 96 -17 304 0 400 41 228 158 456 319 623 166 171 418 303 642 336 41 6 86
13 100 15 45 8 244 -3 321 -18z"/>
<path d="M1265 2378 c-3 -8 -4 -94 -3 -192 3 -158 5 -180 21 -190 12 -8 22 -8
35 0 15 10 17 31 17 200 l0 189 -33 3 c-20 2 -34 -2 -37 -10z"/>
<path d="M768 2249 c-10 -5 -18 -15 -18 -20 0 -8 162 -309 176 -328 6 -8 55
10 60 22 6 18 -168 331 -186 334 -8 2 -23 -2 -32 -8z"/>
<path d="M1796 2228 c-8 -13 -51 -86 -95 -163 -81 -140 -81 -140 -60 -157 12
-10 26 -18 33 -18 11 0 196 311 196 330 0 10 -32 30 -49 30 -6 0 -17 -10 -25
-22z"/>
<path d="M372 1868 c-30 -30 -12 -47 149 -142 89 -53 163 -96 165 -96 2 0 10
13 19 30 15 29 15 30 -22 53 -112 70 -280 167 -289 167 -5 0 -15 -5 -22 -12z"/>
<path d="M2055 1776 c-87 -52 -161 -98 -162 -103 -2 -6 5 -20 15 -33 l19 -23
161 92 c167 95 182 110 146 145 -8 9 -16 16 -17 15 -1 0 -74 -42 -162 -93z"/>
<path d="M1236 1359 c-35 -41 -34 -83 3 -120 20 -20 39 -29 61 -29 22 0 41 9
61 29 37 37 38 79 3 120 -20 25 -34 31 -64 31 -30 0 -44 -6 -64 -31z"/>
<path d="M217 1343 c-9 -9 -9 -51 1 -56 4 -3 89 -7 189 -8 197 -4 211 -1 199
45 l-6 26 -189 0 c-103 0 -191 -3 -194 -7z"/>
<path d="M1994 1316 c-3 -8 -4 -23 -2 -33 3 -17 18 -18 198 -18 l195 0 0 30 0
30 -193 3 c-161 2 -193 0 -198 -12z"/>
<path d="M503 897 c-90 -50 -163 -96 -163 -103 0 -6 8 -21 18 -33 17 -21 17
-20 175 68 87 49 161 91 164 95 9 9 -6 53 -19 58 -7 3 -86 -36 -175 -85z"/>
<path d="M1898 945 c-7 -16 -8 -29 -2 -34 5 -5 79 -50 164 -100 155 -91 155
-91 173 -70 9 12 17 26 17 33 0 12 -308 196 -328 196 -7 0 -18 -11 -24 -25z"/>
<path d="M876 658 c-18 -29 -61 -102 -96 -162 l-64 -109 23 -18 c13 -11 27
-19 31 -19 9 0 200 316 200 331 0 9 -33 29 -49 29 -6 0 -26 -24 -45 -52z"/>
<path d="M1643 697 c-13 -5 -23 -16 -23 -24 0 -19 179 -333 189 -333 5 0 19 8
32 18 l22 19 -87 156 c-48 85 -92 160 -99 165 -8 6 -20 6 -34 -1z"/>
<path d="M1263 595 c-3 -9 -6 -98 -7 -198 l-1 -182 29 -3 c16 -2 32 2 37 10 5
7 9 95 9 194 0 157 -2 183 -16 188 -26 10 -44 7 -51 -9z"/>
</g>
</svg>
